<?xml version="1.0" encoding="utf-8"?>
<!-- Generator: Adobe Illustrator 16.0.0, SVG Export Plug-In . SVG Version: 6.00 Build 0)  -->
<!DOCTYPE svg PUBLIC "-//W3C//DTD SVG 1.1//EN" "http://www.w3.org/Graphics/SVG/1.1/DTD/svg11.dtd">
<svg version="1.1" id="Layer_1" xmlns="http://www.w3.org/2000/svg" xmlns:xlink="http://www.w3.org/1999/xlink" x="0px" y="0px"
	 width="1440px" height="217px" viewBox="0 0 1440 217" enable-background="new 0 0 1440 217" xml:space="preserve">
<g transform="translate(-285 -41)">
	<g opacity="0.8">
		<path id="a_1_" fill="#0256B0" d="M261.7,286.682c421.477,0,1488.977,176.078,1488.977,39.234s478.754-248.043,57.278-248.043
			c-198.746,0-468.566,3.555-719.957-11.23C806.271,50.076,541.9,27.227,344.977,52.438
			C-27.665,100.145-159.776,286.684,261.7,286.684V286.682z"/>
	</g>
	<defs>
		<filter id="Adobe_OpacityMaskFilter" filterUnits="userSpaceOnUse" x="327.974" y="106.932" width="1402.468" height="375.078">
			<feColorMatrix  type="matrix" values="1 0 0 0 0  0 1 0 0 0  0 0 1 0 0  0 0 0 1 0"/>
		</filter>
	</defs>
	<mask maskUnits="userSpaceOnUse" x="327.974" y="106.932" width="1402.468" height="375.078" id="b">
		<g filter="url(#Adobe_OpacityMaskFilter)">
			<path id="a" fill="#FFFFFF" d="M546.7,327.682c421.477,0,1488.977,176.078,1488.977,39.234s478.754-248.043,57.278-248.043
				c-198.746,0-468.566,3.555-719.957-11.23C1091.271,91.076,826.9,68.227,629.977,93.438
				C257.335,141.145,125.224,327.684,546.7,327.684V327.682z"/>
		</g>
	</mask>
	<path mask="url(#b)" fill="#0256B0" enable-background="new    " d="M445.7,387.682c421.477,0,972.745,179.787,972.745,42.943
		s579.94-255.246,158.465-255.246S869.941,28.383,869.941,165.227S24.224,387.682,445.7,387.682L445.7,387.682z"/>
</g>
</svg>
