<?xml version="1.0" encoding="iso-8859-1"?>
<!-- Generator: Adobe Illustrator 19.0.0, SVG Export Plug-In . SVG Version: 6.00 Build 0)  -->
<svg version="1.1" id="Capa_1" xmlns="http://www.w3.org/2000/svg" xmlns:xlink="http://www.w3.org/1999/xlink" x="0px" y="0px"
	 viewBox="0 0 480 480" style="enable-background:new 0 0 480 480;" xml:space="preserve">
<g>
	<rect x="48" y="80" style="fill:#086788;" width="224" height="32"/>
	<polygon style="fill:#086788;" points="192,176 56,176 48,176 48,208 192,208 	"/>
	<rect x="48" y="272" style="fill:#086788;" width="144" height="32"/>
	<rect x="48" y="368" style="fill:#086788;" width="224" height="32"/>
</g>
<polygon style="fill:#06AED5;" points="312,80 312,32 312,16 8,16 8,80 48,80 272,80 "/>
<path style="fill:#FFB40E;" d="M416,184c-19.024,0-35.8,9.504-45.92,24H256h-32v64l32-13.712L280,248l16,16l24-16l24,24h26.08
	c10.12,14.496,26.896,24,45.92,24c30.928,0,56-25.072,56-56S446.928,184,416,184z M424,256c-8.84,0-16-7.16-16-16s7.16-16,16-16
	s16,7.16,16,16S432.84,256,424,256z"/>
<g>
	<polygon style="fill:#06AED5;" points="192,176 192,144 256,144 256,176 312,176 312,152 312,112 272,112 48,112 8,112 8,176 
		48,176 56,176 	"/>
	<polygon style="fill:#06AED5;" points="192,240 192,208 48,208 8,208 8,272 48,272 192,272 	"/>
	<polygon style="fill:#06AED5;" points="192,336 192,304 48,304 8,304 8,368 48,368 272,368 312,368 312,352 312,304 256,304 
		256,336 	"/>
	<polygon style="fill:#06AED5;" points="8,400 8,464 312,464 312,424 312,400 272,400 48,400 	"/>
</g>
<g>
	<polygon style="fill:#DD3232;" points="224,208 256,208 256,176 256,144 192,144 192,176 192,208 192,240 192,272 192,304 192,336 
		256,336 256,304 256,258.288 224,272 	"/>
	<circle style="fill:#DD3232;" cx="456" cy="56" r="16"/>
	<circle style="fill:#DD3232;" cx="456" cy="128" r="16"/>
	<circle style="fill:#DD3232;" cx="456" cy="448" r="16"/>
	<circle style="fill:#DD3232;" cx="456" cy="328" r="16"/>
</g>
<g>
	<path style="fill:#242A40;" d="M424,264c13.232,0,24-10.768,24-24s-10.768-24-24-24s-24,10.768-24,24S410.768,264,424,264z
		 M424,232c4.408,0,8,3.592,8,8c0,4.408-3.592,8-8,8s-8-3.592-8-8S419.592,232,424,232z"/>
	<path style="fill:#242A40;" d="M8,472h304c4.416,0,8-3.584,8-8v-32h59.72l13.624,20.44c1.488,2.224,3.984,3.56,6.656,3.56h33.472
		c3.312,9.288,12.112,16,22.528,16c13.232,0,24-10.768,24-24s-10.768-24-24-24c-10.416,0-19.216,6.712-22.528,16H404.28
		l-13.624-20.44c-1.488-2.224-3.984-3.56-6.656-3.56h-64v-16c0-4.416-3.584-8-8-8h-32v-16h32c4.416,0,8-3.584,8-8v-8h64
		c2.672,0,5.168-1.336,6.656-3.56L404.28,336h29.192c3.312,9.288,12.112,16,22.528,16c13.232,0,24-10.768,24-24s-10.768-24-24-24
		c-10.416,0-19.216,6.712-22.528,16H400c-2.672,0-5.168,1.336-6.656,3.56L379.72,344H320v-40c0-4.416-3.584-8-8-8h-48v-32.44
		l14.168-6.072l12.168,12.168c2.696,2.696,6.936,3.12,10.096,1l18.544-12.36l19.36,19.36C339.84,279.16,341.88,280,344,280h22.08
		c12.112,15.104,30.472,24,49.92,24c35.288,0,64-28.712,64-64s-28.712-64-64-64c-19.448,0-37.808,8.896-49.92,24H264v-16h48
		c4.416,0,8-3.584,8-8v-16h48c2.672,0,5.168-1.336,6.656-3.56L388.28,136h45.192c3.312,9.288,12.112,16,22.528,16
		c13.232,0,24-10.768,24-24s-10.768-24-24-24c-10.416,0-19.216,6.712-22.528,16H384c-2.672,0-5.168,1.336-6.656,3.56L363.72,144H320
		v-32c0-4.416-3.584-8-8-8h-32V88h32c4.416,0,8-3.584,8-8V40h43.72l13.624,20.44C378.832,62.664,381.328,64,384,64h49.472
		c3.312,9.288,12.112,16,22.528,16c13.232,0,24-10.768,24-24s-10.768-24-24-24c-10.416,0-19.216,6.712-22.528,16H388.28
		l-13.624-20.44C373.168,25.336,370.672,24,368,24h-48v-8c0-4.416-3.584-8-8-8H8c-4.416,0-8,3.584-8,8v64c0,4.416,3.584,8,8,8h32v16
		H8c-4.416,0-8,3.584-8,8v64c0,4.416,3.584,8,8,8h32v16H8c-4.416,0-8,3.584-8,8v64c0,4.416,3.584,8,8,8h32v16H8
		c-4.416,0-8,3.584-8,8v64c0,4.416,3.584,8,8,8h32v16H8c-4.416,0-8,3.584-8,8v64C0,468.416,3.584,472,8,472z M456,440
		c4.408,0,8,3.592,8,8s-3.592,8-8,8s-8-3.592-8-8S451.592,440,456,440z M456,320c4.408,0,8,3.592,8,8s-3.592,8-8,8s-8-3.592-8-8
		S451.592,320,456,320z M456,120c4.408,0,8,3.592,8,8s-3.592,8-8,8s-8-3.592-8-8S451.592,120,456,120z M456,48c4.408,0,8,3.592,8,8
		s-3.592,8-8,8s-8-3.592-8-8S451.592,48,456,48z M370.08,216c2.616,0,5.064-1.28,6.56-3.416C385.64,199.696,400.352,192,416,192
		c26.472,0,48,21.528,48,48s-21.528,48-48,48c-15.648,0-30.36-7.696-39.36-20.584c-1.496-2.136-3.952-3.416-6.56-3.416h-22.768
		l-21.656-21.656c-2.696-2.696-6.92-3.112-10.096-1l-18.544,12.36l-11.36-11.36c-2.312-2.312-5.808-2.992-8.808-1.696L232,259.864
		V216h24H370.08z M224,200c-4.416,0-8,3.584-8,8v64c0,2.688,1.352,5.2,3.6,6.68c2.24,1.48,5.072,1.736,7.552,0.672L248,270.416V304
		v24h-48v-24v-32v-64v-32v-24h48v24v24H224z M16,24h288v48H16V24z M56,88h208v16H56V88z M16,120h288v48h-40v-24c0-4.416-3.584-8-8-8
		h-64H48v16h136v16H16V120z M56,184h128v16H56V184z M16,216h168v16H48v16h136v16H16V216z M56,280h128v16H56V280z M16,312h168v16H48
		v16h144h64c4.416,0,8-3.584,8-8v-24h40v48H16V312z M56,376h208v16H56V376z M16,408h288v48H16V408z"/>
	<rect x="48" y="40" style="fill:#242A40;" width="160" height="16"/>
	<rect x="240" y="40" style="fill:#242A40;" width="32" height="16"/>
	<rect x="48" y="424" style="fill:#242A40;" width="160" height="16"/>
	<rect x="240" y="424" style="fill:#242A40;" width="32" height="16"/>
</g>
<g>
</g>
<g>
</g>
<g>
</g>
<g>
</g>
<g>
</g>
<g>
</g>
<g>
</g>
<g>
</g>
<g>
</g>
<g>
</g>
<g>
</g>
<g>
</g>
<g>
</g>
<g>
</g>
<g>
</g>
</svg>
