<svg height="512" viewBox="0 0 512 512" width="512" xmlns="http://www.w3.org/2000/svg"><g id="filled_outline" data-name="filled outline"><path d="m240 128h-80a40.045 40.045 0 0 1 -40-40 8 8 0 0 1 16 0 24.028 24.028 0 0 0 24 24h80a8 8 0 0 1 0 16z" fill="#f55648"/><path d="m264 104 104 24-16 32h-96z" fill="#d18d28"/><path d="m344 256h64v72h-64z" fill="#f3af3e"/><path d="m344 312h64v8h-64z" fill="#c38325"/><path d="m368 280h16v16h-16z" fill="#c38325"/><path d="m212 256h68v72h-68z" fill="#f3af3e"/><path d="m216 312h64v8h-64z" fill="#c38325"/><path d="m488 352a31.131 31.131 0 0 1 -.25 4 31.991 31.991 0 0 1 -31.75 28h-240v-64h240a32 32 0 0 1 32 32z" fill="#4799cf"/><path d="m487.75 356a31.991 31.991 0 0 1 -31.75 28h-240v-56h240a32 32 0 0 1 31.75 28z" fill="#e4e4e2"/><circle cx="456" cy="352" fill="#e4e4e2" r="32"/><circle cx="344" cy="352" fill="#e4e4e2" r="32"/><circle cx="232" cy="352" fill="#e4e4e2" r="32"/><path d="m456 392a40 40 0 1 1 40-40 40.045 40.045 0 0 1 -40 40zm0-64a24 24 0 1 0 24 24 24.028 24.028 0 0 0 -24-24z" fill="#f55648"/><path d="m344 392a40 40 0 1 1 40-40 40.045 40.045 0 0 1 -40 40zm0-64a24 24 0 1 0 24 24 24.028 24.028 0 0 0 -24-24z" fill="#f55648"/><path d="m232 392a40 40 0 1 1 40-40 40.045 40.045 0 0 1 -40 40zm0-64a24 24 0 1 0 24 24 24.028 24.028 0 0 0 -24-24z" fill="#f55648"/><path d="m40 208h160a16 16 0 0 1 16 16v264a0 0 0 0 1 0 0h-192a0 0 0 0 1 0 0v-264a16 16 0 0 1 16-16z" fill="#6cbae5"/><rect fill="#b3e4e8" height="112" rx="8" width="128" x="56" y="240"/><path d="m176 240v96a8 8 0 0 1 -8 8h-112v-96a8 8 0 0 1 8-8z" fill="#c0f5f9"/><path d="m24 384h192v72h-192z" fill="#dbdbdb"/><g fill="#c3c3c3"><path d="m48 400h16v16h-16z"/><path d="m48 424h16v16h-16z"/><path d="m80 400h16v16h-16z"/><path d="m80 424h16v16h-16z"/><path d="m112 400h16v16h-16z"/><path d="m112 424h16v16h-16z"/><path d="m144 400h16v16h-16z"/><path d="m144 424h16v16h-16z"/><path d="m176 400h16v40h-16z"/></g><circle cx="120" cy="320" fill="#b3e4e8" r="8"/><path d="m128 289.013v-9.013h-16v9.013a32.056 32.056 0 0 0 -24 30.987 8 8 0 0 0 16 0 16 16 0 0 1 32 0 8 8 0 0 0 16 0 32.056 32.056 0 0 0 -24-30.987z" fill="#b3e4e8"/><path d="m112 184h16v80h-16z" fill="#b3e4e8"/><path d="m24 24h464v32h-464z" fill="#c3c3c3"/><path d="m232 24h48v96h-48z" fill="#d18d28"/><circle cx="256" cy="128" fill="#f3af3e" r="32"/><path d="m376 232a8 8 0 0 1 -8-8v-16a8 8 0 0 1 16 0v16a8 8 0 0 1 -8 8z" fill="#c3c3c3"/><path d="m96 24h56v64h-56z" fill="#f3af3e"/><path d="m112 152h16v16h-16z" fill="#b3e4e8"/><path d="m112 120h16v16h-16z" fill="#b3e4e8"/><path d="m424 216h16v16h-16z" fill="#c0f5f9"/><path d="m424 184h16v16h-16z" fill="#c0f5f9"/><path d="m424 136h16v32h-16z" fill="#c0f5f9"/><path d="m376 104a24 24 0 0 1 24 24v48a0 0 0 0 1 0 0h-48a0 0 0 0 1 0 0v-48a24 24 0 0 1 24-24z" fill="#f3af3e"/><path d="m360 176h32v32h-32z" fill="#d18d28"/><path d="m360 176h32v8h-32z" fill="#c38325"/><path d="m216 24h16v32h-16z" fill="#a8a8a8"/><path d="m80 24h16v32h-16z" fill="#a8a8a8"/><path d="m24 456h192v8h-192z" fill="#4799cf"/><path d="m48 400h16v16h-16z"/><path d="m48 424h16v16h-16z"/><path d="m80 400h16v16h-16z"/><path d="m80 424h16v16h-16z"/><path d="m112 400h16v16h-16z"/><path d="m112 424h16v16h-16z"/><path d="m144 400h16v16h-16z"/><path d="m144 424h16v16h-16z"/><path d="m176 400h16v40h-16z"/><circle cx="120" cy="320" r="8"/><path d="m112 289.013a32.056 32.056 0 0 0 -24 30.987 8 8 0 0 0 16 0 16 16 0 0 1 32 0 8 8 0 0 0 16 0 32.056 32.056 0 0 0 -24-30.987v-9.013h-16z"/><path d="m456 312h-40v-56a8 8 0 0 0 -8-8h-64a8 8 0 0 0 -8 8v56h-48v-56a8 8 0 0 0 -8-8h-56v-24a24.027 24.027 0 0 0 -24-24h-72v-16h-16v16h-72a24.027 24.027 0 0 0 -24 24v264a8 8 0 0 0 8 8h192a8 8 0 0 0 8-8v-96h232a40 40 0 0 0 0-80zm-328-48v-16h48l.01 96h-112.01v-96h48v16zm80 216h-176v-16h176zm0-32h-176v-56h176zm0-128v56h-176v-152a8.009 8.009 0 0 1 8-8h72v16h-48a16.019 16.019 0 0 0 -16 16v96a16.019 16.019 0 0 0 16 16h112a16.019 16.019 0 0 0 16-16v-96a16.019 16.019 0 0 0 -16-16h-48v-16h72a8.009 8.009 0 0 1 8 8zm144-56h48v48h-48zm-128 0h48v48h-48zm8 112a24.07 24.07 0 0 1 -8-1.377v-45.246a24 24 0 1 1 8 46.623zm80.022 0h-48.044a39.912 39.912 0 0 0 0-48h48.044a39.912 39.912 0 0 0 0 48zm31.978 0a24 24 0 1 1 24-24 24.028 24.028 0 0 1 -24 24zm80.022 0h-48.044a39.912 39.912 0 0 0 0-48h48.044a39.912 39.912 0 0 0 0 48zm31.978 0a24 24 0 1 1 24-24 24.028 24.028 0 0 1 -24 24z"/><path d="m488 16h-464a8 8 0 0 0 -8 8v32a8 8 0 0 0 8 8h64v24a8 8 0 0 0 8 8h24.805a40.067 40.067 0 0 0 39.195 32h56a40.045 40.045 0 0 0 40 40h88v8a8 8 0 0 0 8 8v24a8 8 0 0 0 8 8h8v8a8 8 0 0 0 16 0v-8h8a8 8 0 0 0 8-8v-24a8 8 0 0 0 8-8v-48a31.993 31.993 0 0 0 -61.184-13.1l-58.816-13.572v-37.328h200a8 8 0 0 0 8-8v-32a8 8 0 0 0 -8-8zm-400 32h-56v-16h56zm72-16h64v16h-64zm-56 48v-48h40v48zm115.35 32h-59.35a24.038 24.038 0 0 1 -22.624-16h14.624a8 8 0 0 0 8-8v-24h64v40.026a40.018 40.018 0 0 0 -4.65 7.974zm164.65 88h-16v-16h16zm-24-72a16 16 0 0 1 32 0v40h-32zm-120-96h32v59.35a39.884 39.884 0 0 0 -32 0zm16 120a24 24 0 1 1 24-24 24.028 24.028 0 0 1 -24 24zm39.053-32.624 48.947 11.294v21.33h-56.022a39.87 39.87 0 0 0 7.075-32.624zm184.947-71.376h-192v-16h192z"/><path d="m368 280h16v16h-16z"/><path d="m112 152h16v16h-16z"/><path d="m112 120h16v16h-16z"/><path d="m424 216h16v16h-16z"/><path d="m424 184h16v16h-16z"/><path d="m424 136h16v32h-16z"/></g></svg>